{
  "accessors": [
    {
      "bufferView": 2,
      "componentType": 5126,
      "count": 15499,
      "max": [
        8.631341934204102,
        3.858006000518799,
        2.2980799674987793
      ],
      "min": [
        -6.766297817230225,
        -8.520575523376465,
        -7.9271321296691895
      ],
      "type": "VEC3"
    },
    {
      "bufferView": 2,
      "byteOffset": 185988,
      "componentType": 5126,
      "count": 15499,
      "max": [
        1.0,
        1.0,
        1.0
      ],
      "min": [
        -1.0,
        -1.0,
        -1.0
      ],
      "type": "VEC3"
    },
    {
      "bufferView": 1,
      "componentType": 5126,
      "count": 15499,
      "max": [
        0.9949538707733154,
        0.9907299876213074
      ],
      "min": [
        0.004999999888241291,
        0.004999999888241291
      ],
      "type": "VEC2"
    },
    {
      "bufferView": 0,
      "componentType": 5125,
      "count": 35742,
      "type": "SCALAR"
    },
    {
      "bufferView": 2,
      "byteOffset": 371976,
      "componentType": 5126,
      "count": 128,
      "max": [
        2.4446659088134766,
        -2.038032054901123,
        -6.309537887573242
      ],
      "min": [
        -1.6132769584655762,
        -6.148766040802002,
        -8.88167953491211
      ],
      "type": "VEC3"
    },
    {
      "bufferView": 2,
      "byteOffset": 373512,
      "componentType": 5126,
      "count": 128,
      "max": [
        0.7247010469436646,
        0.8898839950561523,
        0.9847692847251892
      ],
      "min": [
        -0.9318683743476868,
        -0.3962923586368561,
        -0.9995636940002441
      ],
      "type": "VEC3"
    },
    {
      "bufferView": 1,
      "byteOffset": 123992,
      "componentType": 5126,
      "count": 128,
      "max": [
        0.6786580085754395,
        0.6910489797592163
      ],
      "min": [
        0.04789799824357033,
        0.12339799851179123
      ],
      "type": "VEC2"
    },
    {
      "bufferView": 0,
      "byteOffset": 142968,
      "componentType": 5125,
      "count": 300,
      "type": "SCALAR"
    }
  ],
  "asset": {
    "extras": {
      "author": "Dasha Klyusova (https://sketchfab.com/AnoFail)",
      "license": "CC-BY-4.0 (http://creativecommons.org/licenses/by/4.0/)",
      "source": "https://sketchfab.com/3d-models/cocktail-bar-04478d25572342d2ad00e3a19a69bdb3",
      "title": "Cocktail Bar"
    },
    "generator": "Sketchfab-11.38.0",
    "version": "2.0"
  },
  "bufferViews": [
    {
      "buffer": 0,
      "byteLength": 144168,
      "name": "floatBufferViews",
      "target": 34963
    },
    {
      "buffer": 0,
      "byteLength": 125016,
      "byteOffset": 144168,
      "byteStride": 8,
      "name": "floatBufferViews",
      "target": 34962
    },
    {
      "buffer": 0,
      "byteLength": 375048,
      "byteOffset": 269184,
      "byteStride": 12,
      "name": "floatBufferViews",
      "target": 34962
    }
  ],
  "buffers": [
    {
      "byteLength": 644232,
      "uri": "scene.bin"
    }
  ],
  "extensionsUsed": [
    "KHR_materials_unlit"
  ],
  "images": [
    {
      "uri": "texture/None_baseColor.png"
    },
    {
      "uri": "texture/None_emissive.png"
    }
  ],
  "materials": [
    {
      "doubleSided": true,
      "emissiveFactor": [
        1.0,
        1.0,
        1.0
      ],
      "emissiveTexture": {
        "index": 1
      },
      "extensions": {
        "KHR_materials_unlit": {}
      },
      "name": "None",
      "pbrMetallicRoughness": {
        "baseColorTexture": {
          "index": 0
        },
        "metallicFactor": 0.0
      }
    },
    {
      "doubleSided": true,
      "extensions": {
        "KHR_materials_unlit": {}
      },
      "name": "Material.001",
      "pbrMetallicRoughness": {
        "baseColorTexture": {
          "index": 0
        },
        "metallicFactor": 0.0
      }
    }
  ],
  "meshes": [
    {
      "name": "Object_0",
      "primitives": [
        {
          "attributes": {
            "NORMAL": 1,
            "POSITION": 0,
            "TEXCOORD_0": 2
          },
          "indices": 3,
          "material": 0,
          "mode": 4
        }
      ]
    },
    {
      "name": "Object_1",
      "primitives": [
        {
          "attributes": {
            "NORMAL": 5,
            "POSITION": 4,
            "TEXCOORD_0": 6
          },
          "indices": 7,
          "material": 1,
          "mode": 4
        }
      ]
    }
  ],
  "nodes": [
    {
      "children": [
        1
      ],
      "matrix": [
        1.0,
        0.0,
        0.0,
        0.0,
        0.0,
        2.220446049250313e-16,
        -1.0,
        0.0,
        0.0,
        1.0,
        2.220446049250313e-16,
        0.0,
        0.0,
        0.0,
        0.0,
        1.0
      ],
      "name": "Sketchfab_model"
    },
    {
      "children": [
        2
      ],
      "name": "root"
    },
    {
      "children": [
        3
      ],
      "matrix": [
        1.0,
        0.0,
        0.0,
        0.0,
        0.0,
        2.220446049250313e-16,
        1.0,
        0.0,
        0.0,
        -1.0,
        2.220446049250313e-16,
        0.0,
        0.0,
        0.0,
        0.0,
        1.0
      ],
      "name": "GLTF_SceneRootNode"
    },
    {
      "children": [
        4,
        5
      ],
      "matrix": [
        1.0,
        0.0,
        0.0,
        0.0,
        0.0,
        -1.685873969314855e-07,
        0.9999999999999858,
        0.0,
        0.0,
        -0.9999999999999858,
        -1.685873969314855e-07,
        0.0,
        0.0,
        0.0,
        0.0,
        1.0
      ],
      "name": "bar_0"
    },
    {
      "mesh": 0,
      "name": "Object_4"
    },
    {
      "mesh": 1,
      "name": "Object_5"
    }
  ],
  "samplers": [
    {
      "magFilter": 9729,
      "minFilter": 9987,
      "wrapS": 10497,
      "wrapT": 10497
    }
  ],
  "scene": 0,
  "scenes": [
    {
      "name": "Sketchfab_Scene",
      "nodes": [
        0
      ]
    }
  ],
  "textures": [
    {
      "sampler": 0,
      "source": 0
    },
    {
      "sampler": 0,
      "source": 1
    }
  ]
}
